<svg width="352" height="352" viewBox="0 0 352 352" fill="none" xmlns="http://www.w3.org/2000/svg">
<path d="M344.903 0H7.09677C3.17733 0 0 4.47715 0 10V342C0 347.523 3.17733 352 7.09677 352H344.903C348.823 352 352 347.523 352 342V10C352 4.47715 348.823 0 344.903 0Z" fill="#2A75E6"/>
<path d="M0 176H352V342C352 344.652 351.252 347.196 349.921 349.071C348.59 350.946 346.785 352 344.903 352H7.09677C5.21459 352 3.4095 350.946 2.0786 349.071C0.747694 347.196 0 344.652 0 342V176Z" fill="#F9D549"/>
</svg>
